<svg data-name="1-User-Man" xmlns="http://www.w3.org/2000/svg" viewBox="0 0 32 32"><path d="M27.3 25 20 22.31v-1.4a8.06 8.06 0 0 0 4-6.16A2 2 0 0 0 25 13v-2a2 2 0 0 0-1-1.73V8A8 8 0 0 0 8 8v1.27A2 2 0 0 0 7 11v2a2 2 0 0 0 1 1.75 8.06 8.06 0 0 0 4 6.16v1.4L4.7 25c-.91.23-4.7 1.37-4.7 4v2a1 1 0 0 0 1 1h30a1 1 0 0 0 1-1v-2c0-2.59-3.79-3.72-4.7-4zM10 14a1 1 0 0 0-1-1v-2a1 1 0 0 0 1-1c1.74-.1 5.12-.53 6.45-2.3A11.81 11.81 0 0 0 22 9.94V10a1 1 0 0 0 1 1v2a1 1 0 0 0-1 1 6 6 0 0 1-3.43 5.41 1 1 0 0 0-.57.9v2.41A2.56 2.56 0 0 1 16 24a2.56 2.56 0 0 1-2-1.28v-2.41a1 1 0 0 0-.57-.9A6 6 0 0 1 10 14zm20 16H2v-1c0-.78 1.92-1.7 3.24-2h.11l7.26-2.72A4.33 4.33 0 0 0 16 26a4.33 4.33 0 0 0 3.39-1.79l7.26 2.72h.11c1.33.33 3.24 1.25 3.24 2z"/></svg>