<svg xmlns="http://www.w3.org/2000/svg" width="128" height="128" xml:space="preserve"><path fill="#282D33" d="M80.481 16.364h-4C76.481 9.546 70.86 4 63.95 4S51.419 9.546 51.419 16.364h-4C47.419 7.341 54.835 0 63.95 0s16.531 7.341 16.531 16.364zM94.637 66.579h-.491v-4h.491c2.122 0 3.849-1.696 3.849-3.781V48.2c0-2.084-1.727-3.78-3.849-3.78h-.491v-4h.491c4.328 0 7.849 3.49 7.849 7.78v10.598c-.001 4.29-3.521 7.781-7.849 7.781zM108.349 128h-4v-14.499c0-5.292-5.049-9.597-11.255-9.597H34.91c-6.208 0-11.259 4.305-11.259 9.597V128h-4v-14.499c0-7.497 6.845-13.597 15.259-13.597h58.184c8.411 0 15.255 6.1 15.255 13.597V128z"/><path fill="#282D33" d="M64.001 95.973c-17.436 0-31.619-14.03-31.619-31.275V41.276c0-17.244 14.184-31.273 31.619-31.273 17.435 0 31.619 14.029 31.619 31.273v23.421c0 17.245-14.184 31.276-31.619 31.276zm0-81.97c-15.229 0-27.619 12.234-27.619 27.273v23.421c0 15.04 12.39 27.275 27.619 27.275S91.62 79.737 91.62 64.697V41.276c0-15.039-12.39-27.273-27.619-27.273z"/><path fill="#282D33" d="m36.382 66.736-2.205-.228c-3.421-.353-9.53-3.231-9.53-7.711V48.2c0-4.48 6.11-7.357 9.53-7.709l2.205-.227v26.472zm-4-21.695c-1.968.78-3.735 2.161-3.735 3.159v10.598c0 .998 1.767 2.379 3.735 3.16V45.041zM62.362 109.924h4v4.815h-4zM62.362 120.699h4v4.818h-4z"/><path fill="#282D33" d="M95.62 48.729H82.096l-4.029-6.896-4.031 6.896H32.382v-7.454c0-17.244 14.184-31.273 31.619-31.273 17.435 0 31.619 14.029 31.619 31.273v7.454zm-11.229-4h7.229v-3.454c0-15.039-12.39-27.273-27.619-27.273S36.382 26.236 36.382 41.275v3.454H71.74l6.328-10.824 6.323 10.824z"/></svg>